# xmcd
#
# Track frame offsets: 
#        150
#        14131
#        23963
#        38295
#        54584
#        63562
#        73481
#        85455
#        94632
#        111376
#        129901
#        142241
#        157555
#        166079
#        172258
#        183007
#        188669
#        200769
#        209867
#        225217
#        240052
#        248760
#        263357
#        277683
#        287106
#        300462
#
# Disc length: 4145 seconds
#
# Revision: 0
# Processed by: cddbd v1.5.2PL0 Copyright (c) Steve Scherf et al.
# Submitted via: ExactAudioCopy v0.99pb3
#
DISCID=63102f1a
DTITLE=Billy Preston - The Complete VeeJay Recordings
DYEAR=2002
DGENRE=Soul
TTITLE0=If I Had a Hammer
TTITLE1=Low Down
TTITLE2=Slippin' and Slidin'
TTITLE3=Drown in My Own Tears
TTITLE4=I'm Coming Through
TTITLE5=The Octopus
TTITLE6=Soul Meetin'
TTITLE7=Let Me Know
TTITLE8=Billy's Bag
TTITLE9=The Masquerade Is Over
TTITLE10=Steady Gettin' It
TTITLE11=Don't Let the Sun Catch You Crying
TTITLE12=Lay My Burdens Down
TTITLE13=Do Lord
TTITLE14=Gospel Groove
TTITLE15=Praise God From Whom All Blessings Flow
TTITLE16=Just a Closer Walk
TTITLE17=Pass Me Not
TTITLE18=How Great Thou Art
TTITLE19=His Eye Is on the Sparrow
TTITLE20=Gospel in My Soul
TTITLE21=You'll Never Walk Alone
TTITLE22=The Only Hope We Have
TTITLE23=May the Good Lord Bless and Keep You
TTITLE24=I Believe
TTITLE25=Trees
EXTD=
EXTT0=
EXTT1=
EXTT2=
EXTT3=
EXTT4=
EXTT5=
EXTT6=
EXTT7=
EXTT8=
EXTT9=
EXTT10=
EXTT11=
EXTT12=
EXTT13=
EXTT14=
EXTT15=
EXTT16=
EXTT17=
EXTT18=
EXTT19=
EXTT20=
EXTT21=
EXTT22=
EXTT23=
EXTT24=
EXTT25=
PLAYORDER=
